G04*
G04 #@! TF.GenerationSoftware,Altium Limited,Altium Designer,24.0.1 (36)*
G04*
G04 Layer_Color=2752767*
%FSLAX44Y44*%
%MOMM*%
G71*
G04*
G04 #@! TF.SameCoordinates,01A87E56-E8FB-47F9-89C4-8A0F53075384*
G04*
G04*
G04 #@! TF.FilePolarity,Positive*
G04*
G01*
G75*
%ADD22C,0.1270*%
%ADD23C,0.1693*%
D22*
X1203960Y184217D02*
Y194377D01*
X1214120D01*
Y184217D01*
X1203960D01*
Y311217D02*
Y321377D01*
X1214120D01*
Y311217D01*
X1203960D01*
X580390Y184217D02*
Y194377D01*
X590550D01*
Y184217D01*
X580390D01*
Y311217D02*
Y321377D01*
X590550D01*
Y311217D01*
X580390D01*
X770890Y136593D02*
X765810Y146753D01*
X775970D01*
X770890Y136593D01*
Y358843D02*
X765810Y369002D01*
X775970D01*
X770890Y358843D01*
X1120140D02*
X1115060Y369002D01*
X1125220D01*
X1120140Y358843D01*
Y136593D02*
X1115060Y146753D01*
X1125220D01*
X1120140Y136593D01*
X147320D02*
X142240Y146753D01*
X152400D01*
X147320Y136593D01*
Y358843D02*
X142240Y369002D01*
X152400D01*
X147320Y358843D01*
X496570D02*
X491490Y369002D01*
X501650D01*
X496570Y358843D01*
Y136593D02*
X491490Y146753D01*
X501650D01*
X496570Y136593D01*
D23*
X1388080Y274406D02*
G03*
X1388080Y274406I-5080J0D01*
G01*
Y314006D02*
G03*
X1388080Y314006I-5080J0D01*
G01*
M02*
