G04*
G04 #@! TF.GenerationSoftware,Altium Limited,Altium Designer,24.0.1 (36)*
G04*
G04 Layer_Color=65535*
%FSLAX44Y44*%
%MOMM*%
G71*
G04*
G04 #@! TF.SameCoordinates,01A87E56-E8FB-47F9-89C4-8A0F53075384*
G04*
G04*
G04 #@! TF.FilePolarity,Positive*
G04*
G01*
G75*
%ADD10C,0.2500*%
%ADD11C,1.1430*%
%ADD12C,0.2540*%
D10*
X1384250Y248406D02*
G03*
X1384250Y248406I-1250J0D01*
G01*
D11*
X1431000Y254906D02*
Y333506D01*
X1346000Y267406D02*
Y321006D01*
Y267406D02*
X1363000D01*
Y254906D02*
Y267406D01*
Y254906D02*
X1431000D01*
X1346000Y321006D02*
X1363000D01*
Y333506D01*
X1431000D01*
D12*
X758193Y420368D02*
Y405132D01*
X765811D01*
X768350Y407672D01*
Y410211D01*
X765811Y412750D01*
X758193D01*
X765811D01*
X768350Y415289D01*
Y417828D01*
X765811Y420368D01*
X758193D01*
X773428Y405132D02*
X778507D01*
X775968D01*
Y420368D01*
X773428Y417828D01*
X1352551Y364487D02*
X1347473D01*
X1350012D01*
Y351792D01*
X1347473Y349253D01*
X1344933D01*
X1342394Y351792D01*
X1357629Y361948D02*
X1360168Y364487D01*
X1365247D01*
X1367786Y361948D01*
Y351792D01*
X1365247Y349253D01*
X1360168D01*
X1357629Y351792D01*
Y361948D01*
X132084Y420368D02*
Y405132D01*
X139702D01*
X142241Y407672D01*
Y410211D01*
X139702Y412750D01*
X132084D01*
X139702D01*
X142241Y415289D01*
Y417828D01*
X139702Y420368D01*
X132084D01*
X147319Y417828D02*
X149858Y420368D01*
X154937D01*
X157476Y417828D01*
Y407672D01*
X154937Y405132D01*
X149858D01*
X147319Y407672D01*
Y417828D01*
M02*
