G04*
G04 #@! TF.GenerationSoftware,Altium Limited,Altium Designer,24.0.1 (36)*
G04*
G04 Layer_Color=255*
%FSLAX44Y44*%
%MOMM*%
G71*
G04*
G04 #@! TF.SameCoordinates,AD72D708-2F1B-4BA6-821B-E73127EA62D2*
G04*
G04*
G04 #@! TF.FilePolarity,Positive*
G04*
G01*
G75*
%ADD16R,1.2000X1.2000*%
%ADD17C,1.2000*%
%ADD41C,1.5000*%
%ADD42R,1.5000X1.5000*%
%ADD43R,1.5000X1.5000*%
%ADD44C,2.1500*%
%ADD45R,2.1500X2.1500*%
%ADD46C,1.6000*%
%ADD47R,1.6000X1.6000*%
%ADD48C,1.3080*%
%ADD49R,1.3080X1.3080*%
%ADD50R,1.9500X1.9500*%
%ADD51C,1.9500*%
%ADD52R,1.3500X1.3500*%
%ADD53C,1.3500*%
%ADD54C,1.5500*%
%ADD55R,1.5500X1.5500*%
%ADD56R,1.3000X1.3000*%
%ADD57C,1.3000*%
%ADD58R,1.2000X1.2000*%
D16*
X599840Y1333500D02*
D03*
X601110Y1282700D02*
D03*
D17*
X649840Y1333500D02*
D03*
X651110Y1282700D02*
D03*
X219710Y880110D02*
D03*
D41*
X151490Y1096760D02*
D03*
X196490D02*
D03*
Y1031760D02*
D03*
X412750Y740410D02*
D03*
Y765810D02*
D03*
Y791210D02*
D03*
Y816610D02*
D03*
Y842010D02*
D03*
Y867410D02*
D03*
Y892810D02*
D03*
Y918210D02*
D03*
Y943610D02*
D03*
Y969010D02*
D03*
Y994410D02*
D03*
Y1019810D02*
D03*
Y1045210D02*
D03*
Y1070610D02*
D03*
X336550Y740410D02*
D03*
Y765810D02*
D03*
Y791210D02*
D03*
Y816610D02*
D03*
Y842010D02*
D03*
Y867410D02*
D03*
Y892810D02*
D03*
Y918210D02*
D03*
Y943610D02*
D03*
Y969010D02*
D03*
Y994410D02*
D03*
Y1019810D02*
D03*
Y1045210D02*
D03*
D42*
X151490Y1031760D02*
D03*
D43*
X336550Y1070610D02*
D03*
D44*
X146080Y669810D02*
D03*
X143540Y521220D02*
D03*
X441960Y297180D02*
D03*
X133380Y1294650D02*
D03*
D45*
X146080Y709410D02*
D03*
X143540Y560820D02*
D03*
X441960Y336780D02*
D03*
X133380Y1334250D02*
D03*
D46*
X361950Y1282700D02*
D03*
Y1308100D02*
D03*
D47*
Y1333500D02*
D03*
D48*
X210820Y403860D02*
D03*
X185420D02*
D03*
X210820Y223520D02*
D03*
X185420D02*
D03*
X160020Y403860D02*
D03*
X236220D02*
D03*
Y223520D02*
D03*
X160020D02*
D03*
X261620Y403860D02*
D03*
Y223520D02*
D03*
X134620Y403860D02*
D03*
Y223520D02*
D03*
X287020D02*
D03*
X109220Y403860D02*
D03*
Y223520D02*
D03*
D49*
X287020Y403860D02*
D03*
D50*
X631190Y555460D02*
D03*
X629920Y1127570D02*
D03*
D51*
X631190Y505460D02*
D03*
Y455460D02*
D03*
Y405460D02*
D03*
Y355460D02*
D03*
Y305460D02*
D03*
Y255460D02*
D03*
Y205460D02*
D03*
Y155460D02*
D03*
Y105460D02*
D03*
X629920Y1077570D02*
D03*
Y1027570D02*
D03*
Y977570D02*
D03*
Y927570D02*
D03*
Y877570D02*
D03*
Y827570D02*
D03*
Y777570D02*
D03*
Y727570D02*
D03*
Y677570D02*
D03*
D52*
X299000Y1189990D02*
D03*
D53*
X209000D02*
D03*
D54*
X345440Y556260D02*
D03*
X370840D02*
D03*
X396240D02*
D03*
X345440Y581660D02*
D03*
X370840D02*
D03*
D55*
X396240D02*
D03*
D56*
X128270Y880110D02*
D03*
Y831850D02*
D03*
D57*
X102870Y880110D02*
D03*
Y831850D02*
D03*
D58*
X219710Y831310D02*
D03*
M02*
