G04*
G04 #@! TF.GenerationSoftware,Altium Limited,Altium Designer,24.0.1 (36)*
G04*
G04 Layer_Color=65535*
%FSLAX44Y44*%
%MOMM*%
G71*
G04*
G04 #@! TF.SameCoordinates,AD72D708-2F1B-4BA6-821B-E73127EA62D2*
G04*
G04*
G04 #@! TF.FilePolarity,Positive*
G04*
G01*
G75*
%ADD10C,0.2500*%
%ADD11C,0.6000*%
%ADD12C,0.2000*%
%ADD13C,0.1270*%
%ADD14C,0.2000*%
%ADD15C,0.2540*%
D10*
X152740Y1018760D02*
G03*
X152740Y1018760I-1250J0D01*
G01*
X337800Y1083610D02*
G03*
X337800Y1083610I-1250J0D01*
G01*
X147330Y735410D02*
G03*
X147330Y735410I-1250J0D01*
G01*
X144790Y586820D02*
G03*
X144790Y586820I-1250J0D01*
G01*
X363200Y1365600D02*
G03*
X363200Y1365600I-1250J0D01*
G01*
X443210Y362780D02*
G03*
X443210Y362780I-1250J0D01*
G01*
X134630Y1360250D02*
G03*
X134630Y1360250I-1250J0D01*
G01*
X220960Y792460D02*
G03*
X220960Y792460I-1250J0D01*
G01*
D11*
X361150Y1069510D02*
G03*
X361150Y1069510I-3000J0D01*
G01*
D12*
X368300Y1079510D02*
G03*
X381000Y1079510I6350J0D01*
G01*
X288020Y421690D02*
G03*
X288020Y421690I-1000J0D01*
G01*
X632190Y587960D02*
G03*
X632190Y587960I-1000J0D01*
G01*
X204710Y912460D02*
G03*
X196460Y904210I0J-8250D01*
G01*
X242960Y904210D02*
G03*
X234710Y912460I-8250J0D01*
G01*
X234710Y798960D02*
G03*
X242960Y807210I0J8250D01*
G01*
X196460D02*
G03*
X204710Y798960I8250J0D01*
G01*
X630920Y1160070D02*
G03*
X630920Y1160070I-1000J0D01*
G01*
X604840Y1346000D02*
X644840D01*
Y1321000D02*
Y1323750D01*
Y1343250D02*
Y1346000D01*
X604840Y1321000D02*
X644840D01*
X604840D02*
Y1323750D01*
Y1343250D02*
Y1346000D01*
X606110Y1295700D02*
X646110D01*
Y1269700D02*
Y1272950D01*
Y1292450D02*
Y1295700D01*
X606110Y1269700D02*
X646110D01*
X606110D02*
Y1272950D01*
Y1292450D02*
Y1295700D01*
X162700Y1034310D02*
X185280D01*
X162700Y1094210D02*
X184990D01*
X144040Y1043220D02*
Y1085260D01*
X203940Y1043220D02*
Y1085260D01*
X348150Y731510D02*
X401150D01*
X381000Y1079510D02*
X401150D01*
X348150D02*
X368300D01*
X401150Y731510D02*
Y1079510D01*
X348150Y731510D02*
Y1079510D01*
X98080Y650310D02*
X166080D01*
Y662810D01*
X183080D01*
X98080Y728910D02*
X166080D01*
Y716410D02*
Y728910D01*
Y716410D02*
X183080D01*
Y662810D02*
Y716410D01*
X98080Y650310D02*
Y728910D01*
X95540Y501720D02*
X163540D01*
Y514220D01*
X180540D01*
X95540Y580320D02*
X163540D01*
Y567820D02*
Y580320D01*
Y567820D02*
X180540D01*
Y514220D02*
Y567820D01*
X95540Y501720D02*
Y580320D01*
X383550Y1257100D02*
Y1359100D01*
X388550Y1257100D02*
Y1359100D01*
X341550Y1257100D02*
Y1359100D01*
Y1257100D02*
X388550D01*
X341550Y1359100D02*
X388550D01*
X222500Y1201990D02*
X285500D01*
X222500Y1177990D02*
X285500D01*
Y1183250D01*
X222500Y1196730D02*
Y1201990D01*
X285500Y1196730D02*
Y1201990D01*
X222500Y1177990D02*
Y1183250D01*
X330840Y543560D02*
X410840D01*
Y594360D01*
X330840D02*
X410840D01*
X330840Y543560D02*
Y594360D01*
X393960Y277680D02*
Y356280D01*
X478960Y290180D02*
Y343780D01*
X461960D02*
X478960D01*
X461960D02*
Y356280D01*
X393960D02*
X461960D01*
Y290180D02*
X478960D01*
X461960Y277680D02*
Y290180D01*
X393960Y277680D02*
X461960D01*
X85380Y1275150D02*
Y1353750D01*
X170380Y1287650D02*
Y1341250D01*
X153380D02*
X170380D01*
X153380D02*
Y1353750D01*
X85380D02*
X153380D01*
Y1287650D02*
X170380D01*
X153380Y1275150D02*
Y1287650D01*
X85380Y1275150D02*
X153380D01*
X134620Y867410D02*
Y869610D01*
X96520Y867410D02*
Y869610D01*
Y890610D02*
Y892810D01*
X134620Y890610D02*
Y892810D01*
X96520Y867410D02*
X134620D01*
X96520Y892810D02*
X134620D01*
X204710Y798960D02*
X234710D01*
X204710Y912460D02*
X234710D01*
X196460Y807210D02*
Y904210D01*
X242960Y807210D02*
Y904210D01*
X134620Y819150D02*
Y821350D01*
X96520Y819150D02*
Y821350D01*
Y842350D02*
Y844550D01*
X134620Y842350D02*
Y844550D01*
X96520Y819150D02*
X134620D01*
X96520Y844550D02*
X134620D01*
D13*
X96520Y415290D02*
X299720D01*
Y212090D02*
Y415290D01*
X96520Y212090D02*
X299720D01*
X96520D02*
Y415290D01*
X588690Y80460D02*
Y580460D01*
X671190D01*
Y80460D02*
Y580460D01*
X588690Y80460D02*
X671190D01*
X587420Y652570D02*
Y1152570D01*
X669920D01*
Y652570D02*
Y1152570D01*
X587420Y652570D02*
X669920D01*
D14*
X234710Y798960D02*
D03*
D15*
X673101Y1338578D02*
X670562Y1341118D01*
X665483D01*
X662944Y1338578D01*
Y1328422D01*
X665483Y1325883D01*
X670562D01*
X673101Y1328422D01*
X678179Y1338578D02*
X680718Y1341118D01*
X685797D01*
X688336Y1338578D01*
Y1328422D01*
X685797Y1325883D01*
X680718D01*
X678179Y1328422D01*
Y1338578D01*
X674370Y1287778D02*
X671831Y1290318D01*
X666752D01*
X664213Y1287778D01*
Y1277622D01*
X666752Y1275082D01*
X671831D01*
X674370Y1277622D01*
X679448Y1275082D02*
X684527D01*
X681988D01*
Y1290318D01*
X679448Y1287778D01*
X101603Y1118868D02*
X99064Y1121407D01*
X93986D01*
X91447Y1118868D01*
Y1116329D01*
X93986Y1113790D01*
X99064D01*
X101603Y1111251D01*
Y1108712D01*
X99064Y1106172D01*
X93986D01*
X91447Y1108712D01*
X106682Y1121407D02*
Y1106172D01*
X111760Y1111251D01*
X116838Y1106172D01*
Y1121407D01*
X121917Y1118868D02*
X124456Y1121407D01*
X129534D01*
X132073Y1118868D01*
Y1108712D01*
X129534Y1106172D01*
X124456D01*
X121917Y1108712D01*
Y1118868D01*
X361954Y1103627D02*
Y1090932D01*
X364493Y1088392D01*
X369572D01*
X372111Y1090932D01*
Y1103627D01*
X377189Y1101088D02*
X379728Y1103627D01*
X384807D01*
X387346Y1101088D01*
Y1090932D01*
X384807Y1088392D01*
X379728D01*
X377189Y1090932D01*
Y1101088D01*
X109471Y760725D02*
X104392D01*
X106931D01*
Y748029D01*
X104392Y745490D01*
X101853D01*
X99314Y748029D01*
X122167Y745490D02*
Y760725D01*
X114549Y753108D01*
X124706D01*
X106931Y612135D02*
X101852D01*
X104391D01*
Y599439D01*
X101852Y596900D01*
X99313D01*
X96774Y599439D01*
X122166Y612135D02*
X117087Y609596D01*
X112009Y604518D01*
Y599439D01*
X114548Y596900D01*
X119627D01*
X122166Y599439D01*
Y601978D01*
X119627Y604518D01*
X112009D01*
X106658Y810247D02*
X104108Y812775D01*
X99029Y812752D01*
X96502Y810202D01*
X96547Y800045D01*
X99097Y797517D01*
X104176Y797540D01*
X106704Y800090D01*
X119411Y797608D02*
X119343Y812843D01*
X111759Y805191D01*
X121916Y805237D01*
X177546Y911093D02*
Y908554D01*
X182624Y903475D01*
X187703Y908554D01*
Y911093D01*
X182624Y903475D02*
Y895858D01*
X341376Y1390899D02*
Y1380742D01*
X346454Y1375664D01*
X351533Y1380742D01*
Y1390899D01*
X356611Y1375664D02*
Y1390899D01*
X364229D01*
X366768Y1388360D01*
Y1383282D01*
X364229Y1380742D01*
X356611D01*
X361689D02*
X366768Y1375664D01*
X96266Y446527D02*
Y433831D01*
X98805Y431292D01*
X103883D01*
X106423Y433831D01*
Y446527D01*
X111501Y431292D02*
X116579D01*
X114040D01*
Y446527D01*
X111501Y443988D01*
X203454Y1210818D02*
Y1226053D01*
X211071D01*
X213611Y1223514D01*
Y1218436D01*
X211071Y1215896D01*
X203454D01*
X208532D02*
X213611Y1210818D01*
X218689Y1223514D02*
X221228Y1226053D01*
X226307D01*
X228846Y1223514D01*
Y1213357D01*
X226307Y1210818D01*
X221228D01*
X218689Y1213357D01*
Y1223514D01*
X330962Y604520D02*
Y619755D01*
X338579D01*
X341119Y617216D01*
Y612137D01*
X338579Y609598D01*
X330962D01*
X346197Y617216D02*
X348736Y619755D01*
X353815D01*
X356354Y617216D01*
Y607059D01*
X353815Y604520D01*
X348736D01*
X346197Y607059D01*
Y617216D01*
X405381Y388107D02*
X400302D01*
X402841D01*
Y375411D01*
X400302Y372872D01*
X397763D01*
X395224Y375411D01*
X420616Y388107D02*
X410459D01*
Y380490D01*
X415537Y383029D01*
X418077D01*
X420616Y380490D01*
Y375411D01*
X418077Y372872D01*
X412998D01*
X410459Y375411D01*
X591055Y612897D02*
X585976D01*
X588516D01*
Y600201D01*
X585976Y597662D01*
X583437D01*
X580898Y600201D01*
X596133Y610358D02*
X598672Y612897D01*
X603751D01*
X606290Y610358D01*
Y607819D01*
X603751Y605280D01*
X601211D01*
X603751D01*
X606290Y602740D01*
Y600201D01*
X603751Y597662D01*
X598672D01*
X596133Y600201D01*
X589785Y1184905D02*
X584706D01*
X587245D01*
Y1172209D01*
X584706Y1169670D01*
X582167D01*
X579628Y1172209D01*
X605020Y1169670D02*
X594863D01*
X605020Y1179827D01*
Y1182366D01*
X602481Y1184905D01*
X597402D01*
X594863Y1182366D01*
X96771Y1385565D02*
X91692D01*
X94232D01*
Y1372869D01*
X91692Y1370330D01*
X89153D01*
X86614Y1372869D01*
X101849Y1370330D02*
X106927D01*
X104388D01*
Y1385565D01*
X101849Y1383026D01*
X107693Y914396D02*
X105154Y916935D01*
X100075D01*
X97536Y914396D01*
Y904239D01*
X100075Y901700D01*
X105154D01*
X107693Y904239D01*
X112771Y914396D02*
X115310Y916935D01*
X120389D01*
X122928Y914396D01*
Y911857D01*
X120389Y909317D01*
X117849D01*
X120389D01*
X122928Y906778D01*
Y904239D01*
X120389Y901700D01*
X115310D01*
X112771Y904239D01*
M02*
