G04*
G04 #@! TF.GenerationSoftware,Altium Limited,Altium Designer,24.0.1 (36)*
G04*
G04 Layer_Color=2752767*
%FSLAX44Y44*%
%MOMM*%
G71*
G04*
G04 #@! TF.SameCoordinates,AD72D708-2F1B-4BA6-821B-E73127EA62D2*
G04*
G04*
G04 #@! TF.FilePolarity,Positive*
G04*
G01*
G75*
%ADD13C,0.1270*%
%ADD62C,0.1693*%
%ADD63C,0.1016*%
D13*
X594760Y1328420D02*
Y1338580D01*
X604920D01*
Y1328420D01*
X594760D01*
X596792Y1330452D02*
Y1336548D01*
X602888D01*
Y1330452D01*
X596792D01*
X644760Y1328420D02*
Y1338580D01*
X654920D01*
Y1328420D01*
X644760D01*
X646792Y1330452D02*
Y1336548D01*
X652888D01*
Y1330452D01*
X646792D01*
X596030Y1277620D02*
Y1287780D01*
X606190D01*
Y1277620D01*
X596030D01*
X598062Y1279652D02*
Y1285748D01*
X604158D01*
Y1279652D01*
X598062D01*
X646030Y1277620D02*
Y1287780D01*
X656190D01*
Y1277620D01*
X646030D01*
X648062Y1279652D02*
Y1285748D01*
X654158D01*
Y1279652D01*
X648062D01*
X148950Y1094220D02*
Y1091680D01*
X154030D01*
Y1094220D01*
X156570D01*
Y1099300D01*
X154030D01*
Y1101840D01*
X148950D01*
Y1099300D01*
X146410D01*
Y1094220D01*
X148950D01*
X193950D02*
Y1091680D01*
X199030D01*
Y1094220D01*
X201570D01*
Y1099300D01*
X199030D01*
Y1101840D01*
X193950D01*
Y1099300D01*
X191410D01*
Y1094220D01*
X193950D01*
Y1029220D02*
Y1026680D01*
X199030D01*
Y1029220D01*
X201570D01*
Y1034300D01*
X199030D01*
Y1036840D01*
X193950D01*
Y1034300D01*
X191410D01*
Y1029220D01*
X193950D01*
X148950D02*
Y1026680D01*
X154030D01*
Y1029220D01*
X156570D01*
Y1034300D01*
X154030D01*
Y1036840D01*
X148950D01*
Y1034300D01*
X146410D01*
Y1029220D01*
X148950D01*
X412750Y735330D02*
X407670Y745490D01*
X417830D01*
X412750Y735330D01*
Y760730D02*
X407670Y770890D01*
X417830D01*
X412750Y760730D01*
Y786130D02*
X407670Y796290D01*
X417830D01*
X412750Y786130D01*
Y811530D02*
X407670Y821690D01*
X417830D01*
X412750Y811530D01*
Y836930D02*
X407670Y847090D01*
X417830D01*
X412750Y836930D01*
Y862330D02*
X407670Y872490D01*
X417830D01*
X412750Y862330D01*
Y887730D02*
X407670Y897890D01*
X417830D01*
X412750Y887730D01*
Y913130D02*
X407670Y923290D01*
X417830D01*
X412750Y913130D01*
Y938530D02*
X407670Y948690D01*
X417830D01*
X412750Y938530D01*
Y963930D02*
X407670Y974090D01*
X417830D01*
X412750Y963930D01*
Y989330D02*
X407670Y999490D01*
X417830D01*
X412750Y989330D01*
Y1014730D02*
X407670Y1024890D01*
X417830D01*
X412750Y1014730D01*
Y1040130D02*
X407670Y1050290D01*
X417830D01*
X412750Y1040130D01*
Y1065530D02*
X407670Y1075690D01*
X417830D01*
X412750Y1065530D01*
X336550Y735330D02*
X331470Y745490D01*
X341630D01*
X336550Y735330D01*
Y760730D02*
X331470Y770890D01*
X341630D01*
X336550Y760730D01*
Y786130D02*
X331470Y796290D01*
X341630D01*
X336550Y786130D01*
Y811530D02*
X331470Y821690D01*
X341630D01*
X336550Y811530D01*
Y836930D02*
X331470Y847090D01*
X341630D01*
X336550Y836930D01*
Y862330D02*
X331470Y872490D01*
X341630D01*
X336550Y862330D01*
Y887730D02*
X331470Y897890D01*
X341630D01*
X336550Y887730D01*
Y913130D02*
X331470Y923290D01*
X341630D01*
X336550Y913130D01*
Y938530D02*
X331470Y948690D01*
X341630D01*
X336550Y938530D01*
Y963930D02*
X331470Y974090D01*
X341630D01*
X336550Y963930D01*
Y989330D02*
X331470Y999490D01*
X341630D01*
X336550Y989330D01*
Y1014730D02*
X331470Y1024890D01*
X341630D01*
X336550Y1014730D01*
Y1040130D02*
X331470Y1050290D01*
X341630D01*
X336550Y1040130D01*
Y1065530D02*
X331470Y1075690D01*
X341630D01*
X336550Y1065530D01*
X356870Y1277620D02*
X359410D01*
X361950Y1280160D01*
X364490Y1277620D01*
X367030D01*
Y1280160D01*
X364490Y1282700D01*
X367030Y1285240D01*
Y1287780D01*
X364490D01*
X361950Y1285240D01*
X359410Y1287780D01*
X356870D01*
Y1285240D01*
X359410Y1282700D01*
X356870Y1280160D01*
Y1277620D01*
Y1303020D02*
X359410D01*
X361950Y1305560D01*
X364490Y1303020D01*
X367030D01*
Y1305560D01*
X364490Y1308100D01*
X367030Y1310640D01*
Y1313180D01*
X364490D01*
X361950Y1310640D01*
X359410Y1313180D01*
X356870D01*
Y1310640D01*
X359410Y1308100D01*
X356870Y1305560D01*
Y1303020D01*
Y1328420D02*
X359410D01*
X361950Y1330960D01*
X364490Y1328420D01*
X367030D01*
Y1330960D01*
X364490Y1333500D01*
X367030Y1336040D01*
Y1338580D01*
X364490D01*
X361950Y1336040D01*
X359410Y1338580D01*
X356870D01*
Y1336040D01*
X359410Y1333500D01*
X356870Y1330960D01*
Y1328420D01*
X210820Y398780D02*
X213360Y401320D01*
X215900D01*
X213360Y403860D01*
X215900Y406400D01*
X213360D01*
X210820Y408940D01*
X208280Y406400D01*
X205740D01*
X208280Y403860D01*
X205740Y401320D01*
X208280D01*
X210820Y398780D01*
X185420D02*
X187960Y401320D01*
X190500D01*
X187960Y403860D01*
X190500Y406400D01*
X187960D01*
X185420Y408940D01*
X182880Y406400D01*
X180340D01*
X182880Y403860D01*
X180340Y401320D01*
X182880D01*
X185420Y398780D01*
X210820Y218440D02*
X213360Y220980D01*
X215900D01*
X213360Y223520D01*
X215900Y226060D01*
X213360D01*
X210820Y228600D01*
X208280Y226060D01*
X205740D01*
X208280Y223520D01*
X205740Y220980D01*
X208280D01*
X210820Y218440D01*
X185420D02*
X187960Y220980D01*
X190500D01*
X187960Y223520D01*
X190500Y226060D01*
X187960D01*
X185420Y228600D01*
X182880Y226060D01*
X180340D01*
X182880Y223520D01*
X180340Y220980D01*
X182880D01*
X185420Y218440D01*
X160020Y398780D02*
X162560Y401320D01*
X165100D01*
X162560Y403860D01*
X165100Y406400D01*
X162560D01*
X160020Y408940D01*
X157480Y406400D01*
X154940D01*
X157480Y403860D01*
X154940Y401320D01*
X157480D01*
X160020Y398780D01*
X236220D02*
X238760Y401320D01*
X241300D01*
X238760Y403860D01*
X241300Y406400D01*
X238760D01*
X236220Y408940D01*
X233680Y406400D01*
X231140D01*
X233680Y403860D01*
X231140Y401320D01*
X233680D01*
X236220Y398780D01*
Y218440D02*
X238760Y220980D01*
X241300D01*
X238760Y223520D01*
X241300Y226060D01*
X238760D01*
X236220Y228600D01*
X233680Y226060D01*
X231140D01*
X233680Y223520D01*
X231140Y220980D01*
X233680D01*
X236220Y218440D01*
X160020D02*
X162560Y220980D01*
X165100D01*
X162560Y223520D01*
X165100Y226060D01*
X162560D01*
X160020Y228600D01*
X157480Y226060D01*
X154940D01*
X157480Y223520D01*
X154940Y220980D01*
X157480D01*
X160020Y218440D01*
X261620Y398780D02*
X264160Y401320D01*
X266700D01*
X264160Y403860D01*
X266700Y406400D01*
X264160D01*
X261620Y408940D01*
X259080Y406400D01*
X256540D01*
X259080Y403860D01*
X256540Y401320D01*
X259080D01*
X261620Y398780D01*
Y218440D02*
X264160Y220980D01*
X266700D01*
X264160Y223520D01*
X266700Y226060D01*
X264160D01*
X261620Y228600D01*
X259080Y226060D01*
X256540D01*
X259080Y223520D01*
X256540Y220980D01*
X259080D01*
X261620Y218440D01*
X134620Y398780D02*
X137160Y401320D01*
X139700D01*
X137160Y403860D01*
X139700Y406400D01*
X137160D01*
X134620Y408940D01*
X132080Y406400D01*
X129540D01*
X132080Y403860D01*
X129540Y401320D01*
X132080D01*
X134620Y398780D01*
Y218440D02*
X137160Y220980D01*
X139700D01*
X137160Y223520D01*
X139700Y226060D01*
X137160D01*
X134620Y228600D01*
X132080Y226060D01*
X129540D01*
X132080Y223520D01*
X129540Y220980D01*
X132080D01*
X134620Y218440D01*
X287020Y398780D02*
X289560Y401320D01*
X292100D01*
X289560Y403860D01*
X292100Y406400D01*
X289560D01*
X287020Y408940D01*
X284480Y406400D01*
X281940D01*
X284480Y403860D01*
X281940Y401320D01*
X284480D01*
X287020Y398780D01*
Y218440D02*
X289560Y220980D01*
X292100D01*
X289560Y223520D01*
X292100Y226060D01*
X289560D01*
X287020Y228600D01*
X284480Y226060D01*
X281940D01*
X284480Y223520D01*
X281940Y220980D01*
X284480D01*
X287020Y218440D01*
X109220Y398780D02*
X111760Y401320D01*
X114300D01*
X111760Y403860D01*
X114300Y406400D01*
X111760D01*
X109220Y408940D01*
X106680Y406400D01*
X104140D01*
X106680Y403860D01*
X104140Y401320D01*
X106680D01*
X109220Y398780D01*
Y218440D02*
X111760Y220980D01*
X114300D01*
X111760Y223520D01*
X114300Y226060D01*
X111760D01*
X109220Y228600D01*
X106680Y226060D01*
X104140D01*
X106680Y223520D01*
X104140Y220980D01*
X106680D01*
X109220Y218440D01*
X626110Y550380D02*
X628650Y555460D01*
X626110Y560540D01*
X631190Y558000D01*
X636270Y560540D01*
X633730Y555460D01*
X636270Y550380D01*
X631190Y552920D01*
X626110Y550380D01*
Y500380D02*
X628650Y505460D01*
X626110Y510540D01*
X631190Y508000D01*
X636270Y510540D01*
X633730Y505460D01*
X636270Y500380D01*
X631190Y502920D01*
X626110Y500380D01*
Y450380D02*
X628650Y455460D01*
X626110Y460540D01*
X631190Y458000D01*
X636270Y460540D01*
X633730Y455460D01*
X636270Y450380D01*
X631190Y452920D01*
X626110Y450380D01*
Y400380D02*
X628650Y405460D01*
X626110Y410540D01*
X631190Y408000D01*
X636270Y410540D01*
X633730Y405460D01*
X636270Y400380D01*
X631190Y402920D01*
X626110Y400380D01*
Y350380D02*
X628650Y355460D01*
X626110Y360540D01*
X631190Y358000D01*
X636270Y360540D01*
X633730Y355460D01*
X636270Y350380D01*
X631190Y352920D01*
X626110Y350380D01*
Y300380D02*
X628650Y305460D01*
X626110Y310540D01*
X631190Y308000D01*
X636270Y310540D01*
X633730Y305460D01*
X636270Y300380D01*
X631190Y302920D01*
X626110Y300380D01*
Y250380D02*
X628650Y255460D01*
X626110Y260540D01*
X631190Y258000D01*
X636270Y260540D01*
X633730Y255460D01*
X636270Y250380D01*
X631190Y252920D01*
X626110Y250380D01*
Y200380D02*
X628650Y205460D01*
X626110Y210540D01*
X631190Y208000D01*
X636270Y210540D01*
X633730Y205460D01*
X636270Y200380D01*
X631190Y202920D01*
X626110Y200380D01*
Y150380D02*
X628650Y155460D01*
X626110Y160540D01*
X631190Y158000D01*
X636270Y160540D01*
X633730Y155460D01*
X636270Y150380D01*
X631190Y152920D01*
X626110Y150380D01*
Y100380D02*
X628650Y105460D01*
X626110Y110540D01*
X631190Y108000D01*
X636270Y110540D01*
X633730Y105460D01*
X636270Y100380D01*
X631190Y102920D01*
X626110Y100380D01*
X293920Y1189990D02*
X299000Y1195070D01*
X304080Y1189990D01*
X299000Y1184910D01*
X293920Y1189990D01*
X203920D02*
X209000Y1195070D01*
X214080Y1189990D01*
X209000Y1184910D01*
X203920Y1189990D01*
X340360Y551180D02*
Y561340D01*
X350520D01*
Y551180D01*
X340360D01*
X365760D02*
Y561340D01*
X375920D01*
Y551180D01*
X365760D01*
X391160D02*
Y561340D01*
X401320D01*
Y551180D01*
X391160D01*
X340360Y576580D02*
Y586740D01*
X350520D01*
Y576580D01*
X340360D01*
X365760D02*
Y586740D01*
X375920D01*
Y576580D01*
X365760D01*
X391160D02*
Y586740D01*
X401320D01*
Y576580D01*
X391160D01*
X128270Y875030D02*
X130810Y877570D01*
X133350D01*
X130810Y880110D01*
X133350Y882650D01*
X130810D01*
X128270Y885190D01*
X125730Y882650D01*
X123190D01*
X125730Y880110D01*
X123190Y877570D01*
X125730D01*
X128270Y875030D01*
X102870D02*
X105410Y877570D01*
X107950D01*
X105410Y880110D01*
X107950Y882650D01*
X105410D01*
X102870Y885190D01*
X100330Y882650D01*
X97790D01*
X100330Y880110D01*
X97790Y877570D01*
X100330D01*
X102870Y875030D01*
X214630Y826230D02*
Y836390D01*
X224790D01*
Y826230D01*
X214630D01*
X216662Y828262D02*
Y834358D01*
X222758D01*
Y828262D01*
X216662D01*
X214630Y875030D02*
Y885190D01*
X224790D01*
Y875030D01*
X214630D01*
X216662Y877062D02*
Y883158D01*
X222758D01*
Y877062D01*
X216662D01*
X128270Y826770D02*
X130810Y829310D01*
X133350D01*
X130810Y831850D01*
X133350Y834390D01*
X130810D01*
X128270Y836930D01*
X125730Y834390D01*
X123190D01*
X125730Y831850D01*
X123190Y829310D01*
X125730D01*
X128270Y826770D01*
X102870D02*
X105410Y829310D01*
X107950D01*
X105410Y831850D01*
X107950Y834390D01*
X105410D01*
X102870Y836930D01*
X100330Y834390D01*
X97790D01*
X100330Y831850D01*
X97790Y829310D01*
X100330D01*
X102870Y826770D01*
X624840Y1122490D02*
X627380Y1127570D01*
X624840Y1132650D01*
X629920Y1130110D01*
X635000Y1132650D01*
X632460Y1127570D01*
X635000Y1122490D01*
X629920Y1125030D01*
X624840Y1122490D01*
Y1072490D02*
X627380Y1077570D01*
X624840Y1082650D01*
X629920Y1080110D01*
X635000Y1082650D01*
X632460Y1077570D01*
X635000Y1072490D01*
X629920Y1075030D01*
X624840Y1072490D01*
Y1022490D02*
X627380Y1027570D01*
X624840Y1032650D01*
X629920Y1030110D01*
X635000Y1032650D01*
X632460Y1027570D01*
X635000Y1022490D01*
X629920Y1025030D01*
X624840Y1022490D01*
Y972490D02*
X627380Y977570D01*
X624840Y982650D01*
X629920Y980110D01*
X635000Y982650D01*
X632460Y977570D01*
X635000Y972490D01*
X629920Y975030D01*
X624840Y972490D01*
Y922490D02*
X627380Y927570D01*
X624840Y932650D01*
X629920Y930110D01*
X635000Y932650D01*
X632460Y927570D01*
X635000Y922490D01*
X629920Y925030D01*
X624840Y922490D01*
Y872490D02*
X627380Y877570D01*
X624840Y882650D01*
X629920Y880110D01*
X635000Y882650D01*
X632460Y877570D01*
X635000Y872490D01*
X629920Y875030D01*
X624840Y872490D01*
Y822490D02*
X627380Y827570D01*
X624840Y832650D01*
X629920Y830110D01*
X635000Y832650D01*
X632460Y827570D01*
X635000Y822490D01*
X629920Y825030D01*
X624840Y822490D01*
Y772490D02*
X627380Y777570D01*
X624840Y782650D01*
X629920Y780110D01*
X635000Y782650D01*
X632460Y777570D01*
X635000Y772490D01*
X629920Y775030D01*
X624840Y772490D01*
Y722490D02*
X627380Y727570D01*
X624840Y732650D01*
X629920Y730110D01*
X635000Y732650D01*
X632460Y727570D01*
X635000Y722490D01*
X629920Y725030D01*
X624840Y722490D01*
Y672490D02*
X627380Y677570D01*
X624840Y682650D01*
X629920Y680110D01*
X635000Y682650D01*
X632460Y677570D01*
X635000Y672490D01*
X629920Y675030D01*
X624840Y672490D01*
D62*
X151160Y669810D02*
G03*
X151160Y669810I-5080J0D01*
G01*
Y709410D02*
G03*
X151160Y709410I-5080J0D01*
G01*
X148620Y521220D02*
G03*
X148620Y521220I-5080J0D01*
G01*
Y560820D02*
G03*
X148620Y560820I-5080J0D01*
G01*
X447040Y336780D02*
G03*
X447040Y336780I-5080J0D01*
G01*
Y297180D02*
G03*
X447040Y297180I-5080J0D01*
G01*
X138460Y1334250D02*
G03*
X138460Y1334250I-5080J0D01*
G01*
Y1294650D02*
G03*
X138460Y1294650I-5080J0D01*
G01*
X492760Y679450D02*
G03*
X492760Y679450I-5080J0D01*
G01*
X481838Y727202D02*
G03*
X481838Y727202I-5080J0D01*
G01*
D63*
X490728Y679450D02*
G03*
X490728Y679450I-3048J0D01*
G01*
X479806Y727202D02*
G03*
X479806Y727202I-3048J0D01*
G01*
M02*
