G04*
G04 #@! TF.GenerationSoftware,Altium Limited,Altium Designer,24.0.1 (36)*
G04*
G04 Layer_Physical_Order=2*
G04 Layer_Color=16711680*
%FSLAX44Y44*%
%MOMM*%
G71*
G04*
G04 #@! TF.SameCoordinates,AD72D708-2F1B-4BA6-821B-E73127EA62D2*
G04*
G04*
G04 #@! TF.FilePolarity,Positive*
G04*
G01*
G75*
%ADD15C,0.2540*%
%ADD16R,1.2000X1.2000*%
%ADD17C,1.2000*%
%ADD38C,0.3810*%
%ADD39C,0.7620*%
%ADD40C,1.1430*%
%ADD41C,1.5000*%
%ADD42R,1.5000X1.5000*%
%ADD43R,1.5000X1.5000*%
%ADD44C,2.1500*%
%ADD45R,2.1500X2.1500*%
%ADD46C,1.6000*%
%ADD47R,1.6000X1.6000*%
%ADD48C,1.3080*%
%ADD49R,1.3080X1.3080*%
%ADD50R,1.9500X1.9500*%
%ADD51C,1.9500*%
%ADD52R,1.3500X1.3500*%
%ADD53C,1.3500*%
%ADD54C,1.5500*%
%ADD55R,1.5500X1.5500*%
%ADD56R,1.3000X1.3000*%
%ADD57C,1.3000*%
%ADD58R,1.2000X1.2000*%
%ADD59C,1.0000*%
G36*
X698500Y1252220D02*
X247650D01*
Y866286D01*
X221353Y839342D01*
X211678D01*
Y829429D01*
X127000Y742669D01*
Y651510D01*
X217170D01*
X290830Y577850D01*
Y513080D01*
X388620D01*
X421640Y546100D01*
X398717Y569023D01*
X399689Y571370D01*
X406530D01*
Y579120D01*
X396240D01*
Y584200D01*
X406530D01*
Y591950D01*
X395424D01*
X394499Y594316D01*
X400050Y599440D01*
X528320D01*
Y189230D01*
X68580D01*
Y1366520D01*
X698500D01*
Y1252220D01*
D02*
G37*
%LPC*%
G36*
X146670Y1347540D02*
X135920D01*
Y1336790D01*
X146670D01*
Y1347540D01*
D02*
G37*
G36*
X130840D02*
X120090D01*
Y1336790D01*
X130840D01*
Y1347540D01*
D02*
G37*
G36*
X652380Y1341661D02*
Y1336040D01*
X658001D01*
X657798Y1336796D01*
X656674Y1338744D01*
X655084Y1340334D01*
X653137Y1341458D01*
X652380Y1341661D01*
D02*
G37*
G36*
X647300D02*
X646544Y1341458D01*
X644596Y1340334D01*
X643007Y1338744D01*
X641882Y1336796D01*
X641680Y1336040D01*
X647300D01*
Y1341661D01*
D02*
G37*
G36*
X607872Y1341532D02*
X591808D01*
Y1325468D01*
X607872D01*
Y1341532D01*
D02*
G37*
G36*
X658001Y1330960D02*
X652380D01*
Y1325339D01*
X653137Y1325542D01*
X655084Y1326666D01*
X656674Y1328256D01*
X657798Y1330204D01*
X658001Y1330960D01*
D02*
G37*
G36*
X647300D02*
X641680D01*
X641882Y1330204D01*
X643007Y1328256D01*
X644596Y1326666D01*
X646544Y1325542D01*
X647300Y1325339D01*
Y1330960D01*
D02*
G37*
G36*
X371982Y1343532D02*
X351918D01*
Y1323468D01*
X371982D01*
Y1343532D01*
D02*
G37*
G36*
X146670Y1331710D02*
X135920D01*
Y1320960D01*
X146670D01*
Y1331710D01*
D02*
G37*
G36*
X130840D02*
X120090D01*
Y1320960D01*
X130840D01*
Y1331710D01*
D02*
G37*
G36*
X364490Y1318331D02*
Y1310640D01*
X372181D01*
X371772Y1312168D01*
X370384Y1314572D01*
X368422Y1316534D01*
X366018Y1317922D01*
X364490Y1318331D01*
D02*
G37*
G36*
X359410D02*
X357882Y1317922D01*
X355478Y1316534D01*
X353516Y1314572D01*
X352128Y1312168D01*
X351719Y1310640D01*
X359410D01*
Y1318331D01*
D02*
G37*
G36*
X372181Y1305560D02*
X364490D01*
Y1297869D01*
X366018Y1298278D01*
X368422Y1299666D01*
X370384Y1301628D01*
X371772Y1304032D01*
X372181Y1305560D01*
D02*
G37*
G36*
X359410D02*
X351719D01*
X352128Y1304032D01*
X353516Y1301628D01*
X355478Y1299666D01*
X357882Y1298278D01*
X359410Y1297869D01*
Y1305560D01*
D02*
G37*
G36*
X653650Y1290861D02*
Y1285240D01*
X659271D01*
X659068Y1285996D01*
X657944Y1287944D01*
X656354Y1289534D01*
X654407Y1290658D01*
X653650Y1290861D01*
D02*
G37*
G36*
X648570D02*
X647814Y1290658D01*
X645866Y1289534D01*
X644277Y1287944D01*
X643152Y1285996D01*
X642950Y1285240D01*
X648570D01*
Y1290861D01*
D02*
G37*
G36*
X135063Y1307432D02*
X131697D01*
X128446Y1306561D01*
X125532Y1304878D01*
X123152Y1302498D01*
X121469Y1299584D01*
X120598Y1296333D01*
Y1292967D01*
X121469Y1289716D01*
X123152Y1286802D01*
X125532Y1284422D01*
X128446Y1282739D01*
X131697Y1281868D01*
X135063D01*
X138314Y1282739D01*
X141228Y1284422D01*
X143608Y1286802D01*
X145291Y1289716D01*
X146162Y1292967D01*
Y1296333D01*
X145291Y1299584D01*
X143608Y1302498D01*
X141228Y1304878D01*
X138314Y1306561D01*
X135063Y1307432D01*
D02*
G37*
G36*
X609142Y1290732D02*
X593078D01*
Y1274668D01*
X609142D01*
Y1290732D01*
D02*
G37*
G36*
X659271Y1280160D02*
X653650D01*
Y1274539D01*
X654407Y1274742D01*
X656354Y1275866D01*
X657944Y1277456D01*
X659068Y1279404D01*
X659271Y1280160D01*
D02*
G37*
G36*
X648570D02*
X642950D01*
X643152Y1279404D01*
X644277Y1277456D01*
X645866Y1275866D01*
X647814Y1274742D01*
X648570Y1274539D01*
Y1280160D01*
D02*
G37*
G36*
X363271Y1292732D02*
X360629D01*
X358078Y1292048D01*
X355790Y1290728D01*
X353922Y1288860D01*
X352602Y1286572D01*
X351918Y1284021D01*
Y1281379D01*
X352602Y1278828D01*
X353922Y1276540D01*
X355790Y1274672D01*
X358078Y1273352D01*
X360629Y1272668D01*
X363271D01*
X365822Y1273352D01*
X368110Y1274672D01*
X369978Y1276540D01*
X371298Y1278828D01*
X371982Y1281379D01*
Y1284021D01*
X371298Y1286572D01*
X369978Y1288860D01*
X368110Y1290728D01*
X365822Y1292048D01*
X363271Y1292732D01*
D02*
G37*
G36*
X210156Y1198772D02*
X207844D01*
X205610Y1198174D01*
X203608Y1197017D01*
X201973Y1195382D01*
X200816Y1193380D01*
X200218Y1191146D01*
Y1188834D01*
X200816Y1186600D01*
X201973Y1184598D01*
X203608Y1182963D01*
X205610Y1181806D01*
X207844Y1181208D01*
X210156D01*
X212390Y1181806D01*
X214392Y1182963D01*
X216027Y1184598D01*
X217183Y1186600D01*
X217782Y1188834D01*
Y1191146D01*
X217183Y1193380D01*
X216027Y1195382D01*
X214392Y1197017D01*
X212390Y1198174D01*
X210156Y1198772D01*
D02*
G37*
G36*
X199030Y1106473D02*
Y1099300D01*
X206203D01*
X205846Y1100635D01*
X204524Y1102924D01*
X202654Y1104794D01*
X200365Y1106116D01*
X199030Y1106473D01*
D02*
G37*
G36*
X193950D02*
X192614Y1106116D01*
X190325Y1104794D01*
X188456Y1102924D01*
X187134Y1100635D01*
X186776Y1099300D01*
X193950D01*
Y1106473D01*
D02*
G37*
G36*
X152745Y1106292D02*
X150235D01*
X147811Y1105642D01*
X145637Y1104387D01*
X143863Y1102613D01*
X142608Y1100439D01*
X141958Y1098015D01*
Y1095505D01*
X142608Y1093081D01*
X143863Y1090907D01*
X145637Y1089132D01*
X147811Y1087877D01*
X150235Y1087228D01*
X152745D01*
X155169Y1087877D01*
X157343Y1089132D01*
X159118Y1090907D01*
X160373Y1093081D01*
X161022Y1095505D01*
Y1098015D01*
X160373Y1100439D01*
X159118Y1102613D01*
X157343Y1104387D01*
X155169Y1105642D01*
X152745Y1106292D01*
D02*
G37*
G36*
X206203Y1094220D02*
X199030D01*
Y1087046D01*
X200365Y1087404D01*
X202654Y1088726D01*
X204524Y1090595D01*
X205846Y1092885D01*
X206203Y1094220D01*
D02*
G37*
G36*
X193950D02*
X186776D01*
X187134Y1092885D01*
X188456Y1090595D01*
X190325Y1088726D01*
X192614Y1087404D01*
X193950Y1087046D01*
Y1094220D01*
D02*
G37*
G36*
X199030Y1041474D02*
Y1034300D01*
X206203D01*
X205846Y1035636D01*
X204524Y1037925D01*
X202654Y1039794D01*
X200365Y1041116D01*
X199030Y1041474D01*
D02*
G37*
G36*
X193950D02*
X192614Y1041116D01*
X190325Y1039794D01*
X188456Y1037925D01*
X187134Y1035636D01*
X186776Y1034300D01*
X193950D01*
Y1041474D01*
D02*
G37*
G36*
X161022Y1041292D02*
X141958D01*
Y1022228D01*
X161022D01*
Y1041292D01*
D02*
G37*
G36*
X206203Y1029220D02*
X199030D01*
Y1022047D01*
X200365Y1022404D01*
X202654Y1023726D01*
X204524Y1025595D01*
X205846Y1027885D01*
X206203Y1029220D01*
D02*
G37*
G36*
X193950D02*
X186776D01*
X187134Y1027885D01*
X188456Y1025595D01*
X190325Y1023726D01*
X192614Y1022404D01*
X193950Y1022047D01*
Y1029220D01*
D02*
G37*
G36*
X105410Y888788D02*
Y882650D01*
X111548D01*
X111294Y883599D01*
X110104Y885661D01*
X108421Y887344D01*
X106359Y888534D01*
X105410Y888788D01*
D02*
G37*
G36*
X100330D02*
X99381Y888534D01*
X97319Y887344D01*
X95636Y885661D01*
X94446Y883599D01*
X94192Y882650D01*
X100330D01*
Y888788D01*
D02*
G37*
G36*
X220767Y888142D02*
X218653D01*
X216610Y887595D01*
X214778Y886537D01*
X213283Y885042D01*
X212225Y883210D01*
X211678Y881167D01*
Y879053D01*
X212225Y877010D01*
X213283Y875178D01*
X214778Y873683D01*
X216610Y872625D01*
X218653Y872078D01*
X220767D01*
X222810Y872625D01*
X224642Y873683D01*
X226137Y875178D01*
X227195Y877010D01*
X227742Y879053D01*
Y881167D01*
X227195Y883210D01*
X226137Y885042D01*
X224642Y886537D01*
X222810Y887595D01*
X220767Y888142D01*
D02*
G37*
G36*
X136802Y888642D02*
X119738D01*
Y871578D01*
X136802D01*
Y888642D01*
D02*
G37*
G36*
X111548Y877570D02*
X105410D01*
Y871432D01*
X106359Y871686D01*
X108421Y872876D01*
X110104Y874559D01*
X111294Y876621D01*
X111548Y877570D01*
D02*
G37*
G36*
X100330D02*
X94192D01*
X94446Y876621D01*
X95636Y874559D01*
X97319Y872876D01*
X99381Y871686D01*
X100330Y871432D01*
Y877570D01*
D02*
G37*
G36*
X105410Y840528D02*
Y834390D01*
X111548D01*
X111294Y835339D01*
X110104Y837401D01*
X108421Y839084D01*
X106359Y840274D01*
X105410Y840528D01*
D02*
G37*
G36*
X100330D02*
X99381Y840274D01*
X97319Y839084D01*
X95636Y837401D01*
X94446Y835339D01*
X94192Y834390D01*
X100330D01*
Y840528D01*
D02*
G37*
G36*
X136802Y840382D02*
X119738D01*
Y823318D01*
X136802D01*
Y840382D01*
D02*
G37*
G36*
X111548Y829310D02*
X105410D01*
Y823172D01*
X106359Y823426D01*
X108421Y824616D01*
X110104Y826299D01*
X111294Y828361D01*
X111548Y829310D01*
D02*
G37*
G36*
X100330D02*
X94192D01*
X94446Y828361D01*
X95636Y826299D01*
X97319Y824616D01*
X99381Y823426D01*
X100330Y823172D01*
Y829310D01*
D02*
G37*
G36*
X156322Y573602D02*
X130758D01*
Y548038D01*
X156322D01*
Y573602D01*
D02*
G37*
G36*
X145223Y534002D02*
X141857D01*
X138606Y533131D01*
X135692Y531448D01*
X133312Y529068D01*
X131629Y526154D01*
X130758Y522903D01*
Y519537D01*
X131629Y516287D01*
X133312Y513372D01*
X135692Y510992D01*
X138606Y509309D01*
X141857Y508438D01*
X145223D01*
X148474Y509309D01*
X151388Y510992D01*
X153768Y513372D01*
X155451Y516287D01*
X156322Y519537D01*
Y522903D01*
X155451Y526154D01*
X153768Y529068D01*
X151388Y531448D01*
X148474Y533131D01*
X145223Y534002D01*
D02*
G37*
G36*
X137160Y412580D02*
Y406400D01*
X143340D01*
X143081Y407365D01*
X141886Y409435D01*
X140195Y411126D01*
X138125Y412321D01*
X137160Y412580D01*
D02*
G37*
G36*
X132080D02*
X131115Y412321D01*
X129045Y411126D01*
X127354Y409435D01*
X126159Y407365D01*
X125900Y406400D01*
X132080D01*
Y412580D01*
D02*
G37*
G36*
X295592Y412432D02*
X278448D01*
Y395288D01*
X295592D01*
Y412432D01*
D02*
G37*
G36*
X262749D02*
X260492D01*
X258311Y411848D01*
X256357Y410719D01*
X254761Y409123D01*
X253632Y407169D01*
X253048Y404989D01*
Y402732D01*
X253632Y400551D01*
X254761Y398597D01*
X256357Y397001D01*
X258311Y395872D01*
X260492Y395288D01*
X262749D01*
X264929Y395872D01*
X266883Y397001D01*
X268479Y398597D01*
X269608Y400551D01*
X270192Y402732D01*
Y404989D01*
X269608Y407169D01*
X268479Y409123D01*
X266883Y410719D01*
X264929Y411848D01*
X262749Y412432D01*
D02*
G37*
G36*
X237348D02*
X235091D01*
X232911Y411848D01*
X230957Y410719D01*
X229361Y409123D01*
X228232Y407169D01*
X227648Y404989D01*
Y402732D01*
X228232Y400551D01*
X229361Y398597D01*
X230957Y397001D01*
X232911Y395872D01*
X235091Y395288D01*
X237348D01*
X239529Y395872D01*
X241483Y397001D01*
X243079Y398597D01*
X244208Y400551D01*
X244792Y402732D01*
Y404989D01*
X244208Y407169D01*
X243079Y409123D01*
X241483Y410719D01*
X239529Y411848D01*
X237348Y412432D01*
D02*
G37*
G36*
X211949D02*
X209692D01*
X207511Y411848D01*
X205557Y410719D01*
X203961Y409123D01*
X202832Y407169D01*
X202248Y404989D01*
Y402732D01*
X202832Y400551D01*
X203961Y398597D01*
X205557Y397001D01*
X207511Y395872D01*
X209692Y395288D01*
X211949D01*
X214129Y395872D01*
X216083Y397001D01*
X217679Y398597D01*
X218808Y400551D01*
X219392Y402732D01*
Y404989D01*
X218808Y407169D01*
X217679Y409123D01*
X216083Y410719D01*
X214129Y411848D01*
X211949Y412432D01*
D02*
G37*
G36*
X186549D02*
X184291D01*
X182111Y411848D01*
X180157Y410719D01*
X178561Y409123D01*
X177432Y407169D01*
X176848Y404989D01*
Y402732D01*
X177432Y400551D01*
X178561Y398597D01*
X180157Y397001D01*
X182111Y395872D01*
X184291Y395288D01*
X186549D01*
X188729Y395872D01*
X190683Y397001D01*
X192279Y398597D01*
X193408Y400551D01*
X193992Y402732D01*
Y404989D01*
X193408Y407169D01*
X192279Y409123D01*
X190683Y410719D01*
X188729Y411848D01*
X186549Y412432D01*
D02*
G37*
G36*
X161148D02*
X158891D01*
X156711Y411848D01*
X154757Y410719D01*
X153161Y409123D01*
X152032Y407169D01*
X151448Y404989D01*
Y402732D01*
X152032Y400551D01*
X153161Y398597D01*
X154757Y397001D01*
X156711Y395872D01*
X158891Y395288D01*
X161148D01*
X163329Y395872D01*
X165283Y397001D01*
X166879Y398597D01*
X168008Y400551D01*
X168592Y402732D01*
Y404989D01*
X168008Y407169D01*
X166879Y409123D01*
X165283Y410719D01*
X163329Y411848D01*
X161148Y412432D01*
D02*
G37*
G36*
X110349D02*
X108091D01*
X105911Y411848D01*
X103957Y410719D01*
X102361Y409123D01*
X101232Y407169D01*
X100648Y404989D01*
Y402732D01*
X101232Y400551D01*
X102361Y398597D01*
X103957Y397001D01*
X105911Y395872D01*
X108091Y395288D01*
X110349D01*
X112529Y395872D01*
X114483Y397001D01*
X116079Y398597D01*
X117208Y400551D01*
X117792Y402732D01*
Y404989D01*
X117208Y407169D01*
X116079Y409123D01*
X114483Y410719D01*
X112529Y411848D01*
X110349Y412432D01*
D02*
G37*
G36*
X143340Y401320D02*
X137160D01*
Y395140D01*
X138125Y395399D01*
X140195Y396594D01*
X141886Y398285D01*
X143081Y400355D01*
X143340Y401320D01*
D02*
G37*
G36*
X132080D02*
X125900D01*
X126159Y400355D01*
X127354Y398285D01*
X129045Y396594D01*
X131115Y395399D01*
X132080Y395140D01*
Y401320D01*
D02*
G37*
G36*
X454742Y349562D02*
X429178D01*
Y323998D01*
X454742D01*
Y349562D01*
D02*
G37*
G36*
X443643Y309962D02*
X440277D01*
X437026Y309091D01*
X434112Y307408D01*
X431732Y305028D01*
X430049Y302114D01*
X429178Y298863D01*
Y295497D01*
X430049Y292246D01*
X431732Y289332D01*
X434112Y286952D01*
X437026Y285269D01*
X440277Y284398D01*
X443643D01*
X446894Y285269D01*
X449808Y286952D01*
X452188Y289332D01*
X453871Y292246D01*
X454742Y295497D01*
Y298863D01*
X453871Y302114D01*
X452188Y305028D01*
X449808Y307408D01*
X446894Y309091D01*
X443643Y309962D01*
D02*
G37*
G36*
X137160Y232240D02*
Y226060D01*
X143340D01*
X143081Y227025D01*
X141886Y229095D01*
X140195Y230786D01*
X138125Y231981D01*
X137160Y232240D01*
D02*
G37*
G36*
X132080D02*
X131115Y231981D01*
X129045Y230786D01*
X127354Y229095D01*
X126159Y227025D01*
X125900Y226060D01*
X132080D01*
Y232240D01*
D02*
G37*
G36*
X288148Y232092D02*
X285891D01*
X283711Y231508D01*
X281757Y230379D01*
X280161Y228783D01*
X279032Y226829D01*
X278448Y224648D01*
Y222391D01*
X279032Y220211D01*
X280161Y218257D01*
X281757Y216661D01*
X283711Y215532D01*
X285891Y214948D01*
X288148D01*
X290329Y215532D01*
X292283Y216661D01*
X293879Y218257D01*
X295008Y220211D01*
X295592Y222391D01*
Y224648D01*
X295008Y226829D01*
X293879Y228783D01*
X292283Y230379D01*
X290329Y231508D01*
X288148Y232092D01*
D02*
G37*
G36*
X262749D02*
X260492D01*
X258311Y231508D01*
X256357Y230379D01*
X254761Y228783D01*
X253632Y226829D01*
X253048Y224648D01*
Y222391D01*
X253632Y220211D01*
X254761Y218257D01*
X256357Y216661D01*
X258311Y215532D01*
X260492Y214948D01*
X262749D01*
X264929Y215532D01*
X266883Y216661D01*
X268479Y218257D01*
X269608Y220211D01*
X270192Y222391D01*
Y224648D01*
X269608Y226829D01*
X268479Y228783D01*
X266883Y230379D01*
X264929Y231508D01*
X262749Y232092D01*
D02*
G37*
G36*
X237348D02*
X235091D01*
X232911Y231508D01*
X230957Y230379D01*
X229361Y228783D01*
X228232Y226829D01*
X227648Y224648D01*
Y222391D01*
X228232Y220211D01*
X229361Y218257D01*
X230957Y216661D01*
X232911Y215532D01*
X235091Y214948D01*
X237348D01*
X239529Y215532D01*
X241483Y216661D01*
X243079Y218257D01*
X244208Y220211D01*
X244792Y222391D01*
Y224648D01*
X244208Y226829D01*
X243079Y228783D01*
X241483Y230379D01*
X239529Y231508D01*
X237348Y232092D01*
D02*
G37*
G36*
X211949D02*
X209692D01*
X207511Y231508D01*
X205557Y230379D01*
X203961Y228783D01*
X202832Y226829D01*
X202248Y224648D01*
Y222391D01*
X202832Y220211D01*
X203961Y218257D01*
X205557Y216661D01*
X207511Y215532D01*
X209692Y214948D01*
X211949D01*
X214129Y215532D01*
X216083Y216661D01*
X217679Y218257D01*
X218808Y220211D01*
X219392Y222391D01*
Y224648D01*
X218808Y226829D01*
X217679Y228783D01*
X216083Y230379D01*
X214129Y231508D01*
X211949Y232092D01*
D02*
G37*
G36*
X186549D02*
X184291D01*
X182111Y231508D01*
X180157Y230379D01*
X178561Y228783D01*
X177432Y226829D01*
X176848Y224648D01*
Y222391D01*
X177432Y220211D01*
X178561Y218257D01*
X180157Y216661D01*
X182111Y215532D01*
X184291Y214948D01*
X186549D01*
X188729Y215532D01*
X190683Y216661D01*
X192279Y218257D01*
X193408Y220211D01*
X193992Y222391D01*
Y224648D01*
X193408Y226829D01*
X192279Y228783D01*
X190683Y230379D01*
X188729Y231508D01*
X186549Y232092D01*
D02*
G37*
G36*
X161148D02*
X158891D01*
X156711Y231508D01*
X154757Y230379D01*
X153161Y228783D01*
X152032Y226829D01*
X151448Y224648D01*
Y222391D01*
X152032Y220211D01*
X153161Y218257D01*
X154757Y216661D01*
X156711Y215532D01*
X158891Y214948D01*
X161148D01*
X163329Y215532D01*
X165283Y216661D01*
X166879Y218257D01*
X168008Y220211D01*
X168592Y222391D01*
Y224648D01*
X168008Y226829D01*
X166879Y228783D01*
X165283Y230379D01*
X163329Y231508D01*
X161148Y232092D01*
D02*
G37*
G36*
X110349D02*
X108091D01*
X105911Y231508D01*
X103957Y230379D01*
X102361Y228783D01*
X101232Y226829D01*
X100648Y224648D01*
Y222391D01*
X101232Y220211D01*
X102361Y218257D01*
X103957Y216661D01*
X105911Y215532D01*
X108091Y214948D01*
X110349D01*
X112529Y215532D01*
X114483Y216661D01*
X116079Y218257D01*
X117208Y220211D01*
X117792Y222391D01*
Y224648D01*
X117208Y226829D01*
X116079Y228783D01*
X114483Y230379D01*
X112529Y231508D01*
X110349Y232092D01*
D02*
G37*
G36*
X143340Y220980D02*
X137160D01*
Y214800D01*
X138125Y215059D01*
X140195Y216254D01*
X141886Y217945D01*
X143081Y220015D01*
X143340Y220980D01*
D02*
G37*
G36*
X132080D02*
X125900D01*
X126159Y220015D01*
X127354Y217945D01*
X129045Y216254D01*
X131115Y215059D01*
X132080Y214800D01*
Y220980D01*
D02*
G37*
%LPD*%
D15*
X467360Y120647D02*
X462282Y110490D01*
X457203Y120647D01*
X444507Y110490D02*
X449586D01*
X452125Y113029D01*
Y118108D01*
X449586Y120647D01*
X444507D01*
X441968Y118108D01*
Y115568D01*
X452125D01*
X436890Y120647D02*
Y110490D01*
Y115568D01*
X434351Y118108D01*
X431811Y120647D01*
X429272D01*
X421655Y110490D02*
Y113029D01*
X419116D01*
Y110490D01*
X421655D01*
X393724D02*
X388646D01*
X391185D01*
Y125725D01*
X393724Y123186D01*
X381028Y110490D02*
Y113029D01*
X378489D01*
Y110490D01*
X381028D01*
X368332D02*
X363254D01*
X365793D01*
Y125725D01*
X368332Y123186D01*
X464820Y163822D02*
Y138430D01*
X452124D01*
X447892Y142662D01*
Y159590D01*
X452124Y163822D01*
X464820D01*
X439428Y138430D02*
Y163822D01*
X426732D01*
X422500Y159590D01*
Y151126D01*
X426732Y146894D01*
X439428D01*
X430964D02*
X422500Y138430D01*
X414036Y163822D02*
X405573D01*
X409804D01*
Y138430D01*
X414036D01*
X405573D01*
X392877Y163822D02*
Y146894D01*
X384413Y138430D01*
X375949Y146894D01*
Y163822D01*
X350557D02*
X367485D01*
Y138430D01*
X350557D01*
X367485Y151126D02*
X359021D01*
X342093D02*
X325165D01*
X316701Y163822D02*
X308237D01*
X312469D01*
Y138430D01*
X316701D01*
X308237D01*
X295541Y163822D02*
X278613D01*
X287077D01*
Y138430D01*
D16*
X599840Y1333500D02*
D03*
X601110Y1282700D02*
D03*
D17*
X649840Y1333500D02*
D03*
X651110Y1282700D02*
D03*
X219710Y880110D02*
D03*
D38*
X364490Y919480D02*
Y1042670D01*
X349257Y904247D02*
X364490Y919480D01*
X331813Y904247D02*
X349257D01*
X336550Y1070610D02*
X364490Y1042670D01*
X324908Y1121198D02*
X383794Y1180084D01*
X307382Y1128458D02*
X376535Y1197610D01*
X307382Y998178D02*
Y1128458D01*
X313224Y1017736D02*
Y1126038D01*
X319066Y1123618D02*
X381374Y1185926D01*
X313224Y1017736D02*
X335915Y995045D01*
X313224Y885658D02*
X331813Y904247D01*
X307382Y998178D02*
X336550Y969010D01*
X313224Y542756D02*
X325882Y530098D01*
X319066Y1037294D02*
X336550Y1019810D01*
X324908Y1056852D02*
Y1121198D01*
Y1056852D02*
X336550Y1045210D01*
X313224Y542756D02*
Y885658D01*
X319066Y1037294D02*
Y1123618D01*
X307382Y682032D02*
Y889042D01*
X313224Y1126038D02*
X378954Y1191768D01*
X307382Y889042D02*
X336550Y918210D01*
X487680Y658502D02*
Y679450D01*
X567944Y862584D02*
X575818Y854710D01*
X450970Y621792D02*
X487680Y658502D01*
X328302Y535940D02*
X350520D01*
X562102Y860164D02*
Y1134604D01*
X376535Y1197610D02*
X408940D01*
X665480Y713130D02*
Y834390D01*
X413779Y1185926D02*
X510780D01*
X513200Y1191768D02*
X567944Y1137024D01*
X340614Y627634D02*
X448550D01*
X573786Y865004D02*
X578238Y860552D01*
X636898Y854710D02*
X659638Y831970D01*
X295160Y669810D02*
X307382Y682032D01*
X324908Y602022D02*
X344678Y621792D01*
X650100Y727570D02*
X659638Y737108D01*
X370078Y530098D02*
X396240Y556260D01*
X515620Y1197610D02*
X573786Y1139444D01*
X466090Y645174D02*
Y820420D01*
X629920Y777570D02*
X653796Y801446D01*
X408940Y1197610D02*
X515620D01*
X629920Y677570D02*
X665480Y713130D01*
X448550Y627634D02*
X466090Y645174D01*
X453390Y615950D02*
X499110Y661670D01*
X383794Y1180084D02*
X508361D01*
X556260Y857744D02*
X586434Y827570D01*
X335915Y993775D02*
X336550Y994410D01*
X335915Y993775D02*
Y995045D01*
X634986Y848360D02*
X653796Y829550D01*
X556260Y857744D02*
Y1132185D01*
X567944Y862584D02*
Y1137024D01*
X405130Y615950D02*
X453390D01*
X336550Y892810D02*
X337639Y893899D01*
X378954Y1191768D02*
X411360D01*
X562102Y860164D02*
X573906Y848360D01*
X476758Y727202D02*
X499110Y704850D01*
X344678Y621792D02*
X450970D01*
X319066Y606086D02*
X340614Y627634D01*
X319066Y545176D02*
X328302Y535940D01*
X444500Y842010D02*
X466090Y820420D01*
X334010Y556260D02*
X345440D01*
X325882Y530098D02*
X370078D01*
X586434Y827570D02*
X629920D01*
X381374Y1185926D02*
X413779D01*
X510780D02*
X562102Y1134604D01*
X573906Y848360D02*
X634986D01*
X575818Y854710D02*
X636898D01*
X573786Y865004D02*
Y1139444D01*
X578238Y860552D02*
X639318D01*
X499110Y661670D02*
Y704850D01*
X370840Y581660D02*
X405130Y615950D01*
X508361Y1180084D02*
X556260Y1132185D01*
X324908Y565362D02*
X334010Y556260D01*
X412750Y842010D02*
X444500D01*
X411360Y1191768D02*
X513200D01*
X659638Y737108D02*
Y831970D01*
X639318Y860552D02*
X665480Y834390D01*
X324908Y565362D02*
Y602022D01*
X350520Y535940D02*
X370840Y556260D01*
X319066Y545176D02*
Y606086D01*
X146080Y669810D02*
X295160D01*
X653796Y801446D02*
Y829550D01*
X629920Y727570D02*
X650100D01*
D39*
X299870Y1187050D02*
X302810Y1189990D01*
X273558Y711200D02*
X298600Y736242D01*
Y1187050D01*
X147870Y711200D02*
X273558D01*
X146080Y709410D02*
X147870Y711200D01*
D40*
X357959Y893899D02*
X382270Y918210D01*
X340164Y893899D02*
X357959D01*
X382270Y918210D02*
X412750D01*
X339757Y893493D02*
X340164Y893899D01*
X338046Y893493D02*
X339757D01*
X337639Y893899D02*
X338046Y893493D01*
D41*
X151490Y1096760D02*
D03*
X196490D02*
D03*
Y1031760D02*
D03*
X412750Y740410D02*
D03*
Y765810D02*
D03*
Y791210D02*
D03*
Y816610D02*
D03*
Y842010D02*
D03*
Y867410D02*
D03*
Y892810D02*
D03*
Y918210D02*
D03*
Y943610D02*
D03*
Y969010D02*
D03*
Y994410D02*
D03*
Y1019810D02*
D03*
Y1045210D02*
D03*
Y1070610D02*
D03*
X336550Y740410D02*
D03*
Y765810D02*
D03*
Y791210D02*
D03*
Y816610D02*
D03*
Y842010D02*
D03*
Y867410D02*
D03*
Y892810D02*
D03*
Y918210D02*
D03*
Y943610D02*
D03*
Y969010D02*
D03*
Y994410D02*
D03*
Y1019810D02*
D03*
Y1045210D02*
D03*
D42*
X151490Y1031760D02*
D03*
D43*
X336550Y1070610D02*
D03*
D44*
X146080Y669810D02*
D03*
X143540Y521220D02*
D03*
X441960Y297180D02*
D03*
X133380Y1294650D02*
D03*
D45*
X146080Y709410D02*
D03*
X143540Y560820D02*
D03*
X441960Y336780D02*
D03*
X133380Y1334250D02*
D03*
D46*
X361950Y1282700D02*
D03*
Y1308100D02*
D03*
D47*
Y1333500D02*
D03*
D48*
X210820Y403860D02*
D03*
X185420D02*
D03*
X210820Y223520D02*
D03*
X185420D02*
D03*
X160020Y403860D02*
D03*
X236220D02*
D03*
Y223520D02*
D03*
X160020D02*
D03*
X261620Y403860D02*
D03*
Y223520D02*
D03*
X134620Y403860D02*
D03*
Y223520D02*
D03*
X287020D02*
D03*
X109220Y403860D02*
D03*
Y223520D02*
D03*
D49*
X287020Y403860D02*
D03*
D50*
X631190Y555460D02*
D03*
X629920Y1127570D02*
D03*
D51*
X631190Y505460D02*
D03*
Y455460D02*
D03*
Y405460D02*
D03*
Y355460D02*
D03*
Y305460D02*
D03*
Y255460D02*
D03*
Y205460D02*
D03*
Y155460D02*
D03*
Y105460D02*
D03*
X629920Y1077570D02*
D03*
Y1027570D02*
D03*
Y977570D02*
D03*
Y927570D02*
D03*
Y877570D02*
D03*
Y827570D02*
D03*
Y777570D02*
D03*
Y727570D02*
D03*
Y677570D02*
D03*
D52*
X299000Y1189990D02*
D03*
D53*
X209000D02*
D03*
D54*
X345440Y556260D02*
D03*
X370840D02*
D03*
X396240D02*
D03*
X345440Y581660D02*
D03*
X370840D02*
D03*
D55*
X396240D02*
D03*
D56*
X128270Y880110D02*
D03*
Y831850D02*
D03*
D57*
X102870Y880110D02*
D03*
Y831850D02*
D03*
D58*
X219710Y831310D02*
D03*
D59*
X487680Y679450D02*
D03*
X476758Y727202D02*
D03*
M02*
