G04*
G04 #@! TF.GenerationSoftware,Altium Limited,Altium Designer,24.0.1 (36)*
G04*
G04 Layer_Color=128*
%FSLAX44Y44*%
%MOMM*%
G71*
G04*
G04 #@! TF.SameCoordinates,AD72D708-2F1B-4BA6-821B-E73127EA62D2*
G04*
G04*
G04 #@! TF.FilePolarity,Positive*
G04*
G01*
G75*
%ADD13C,0.1270*%
D13*
X596340Y1333500D02*
X603340D01*
X599840Y1330000D02*
Y1337000D01*
X646340Y1333500D02*
X653340D01*
X649840Y1330000D02*
Y1337000D01*
X597610Y1282700D02*
X604610D01*
X601110Y1279200D02*
Y1286200D01*
X647610Y1282700D02*
X654610D01*
X651110Y1279200D02*
Y1286200D01*
X146540Y1096760D02*
X156440D01*
X151490Y1091810D02*
Y1101710D01*
X191540Y1096760D02*
X201440D01*
X196490Y1091810D02*
Y1101710D01*
X191540Y1031760D02*
X201440D01*
X196490Y1026810D02*
Y1036710D01*
X146540Y1031760D02*
X156440D01*
X151490Y1026810D02*
Y1036710D01*
X408250Y740410D02*
X417250D01*
X412750Y735910D02*
Y744910D01*
X408250Y765810D02*
X417250D01*
X412750Y761310D02*
Y770310D01*
X408250Y791210D02*
X417250D01*
X412750Y786710D02*
Y795710D01*
X408250Y816610D02*
X417250D01*
X412750Y812110D02*
Y821110D01*
X408250Y842010D02*
X417250D01*
X412750Y837510D02*
Y846510D01*
X408250Y867410D02*
X417250D01*
X412750Y862910D02*
Y871910D01*
X408250Y892810D02*
X417250D01*
X412750Y888310D02*
Y897310D01*
X408250Y918210D02*
X417250D01*
X412750Y913710D02*
Y922710D01*
X408250Y943610D02*
X417250D01*
X412750Y939110D02*
Y948110D01*
X408250Y969010D02*
X417250D01*
X412750Y964510D02*
Y973510D01*
X408250Y994410D02*
X417250D01*
X412750Y989910D02*
Y998910D01*
X408250Y1019810D02*
X417250D01*
X412750Y1015310D02*
Y1024310D01*
X408250Y1045210D02*
X417250D01*
X412750Y1040710D02*
Y1049710D01*
X408250Y1070610D02*
X417250D01*
X412750Y1066110D02*
Y1075110D01*
X332050Y740410D02*
X341050D01*
X336550Y735910D02*
Y744910D01*
X332050Y765810D02*
X341050D01*
X336550Y761310D02*
Y770310D01*
X332050Y791210D02*
X341050D01*
X336550Y786710D02*
Y795710D01*
X332050Y816610D02*
X341050D01*
X336550Y812110D02*
Y821110D01*
X332050Y842010D02*
X341050D01*
X336550Y837510D02*
Y846510D01*
X332050Y867410D02*
X341050D01*
X336550Y862910D02*
Y871910D01*
X332050Y892810D02*
X341050D01*
X336550Y888310D02*
Y897310D01*
X332050Y918210D02*
X341050D01*
X336550Y913710D02*
Y922710D01*
X332050Y943610D02*
X341050D01*
X336550Y939110D02*
Y948110D01*
X332050Y969010D02*
X341050D01*
X336550Y964510D02*
Y973510D01*
X332050Y994410D02*
X341050D01*
X336550Y989910D02*
Y998910D01*
X332050Y1019810D02*
X341050D01*
X336550Y1015310D02*
Y1024310D01*
X332050Y1045210D02*
X341050D01*
X336550Y1040710D02*
Y1049710D01*
X332050Y1070610D02*
X341050D01*
X336550Y1066110D02*
Y1075110D01*
X137830Y669810D02*
X154330D01*
X146080Y661560D02*
Y678060D01*
X137830Y709410D02*
X154330D01*
X146080Y701160D02*
Y717660D01*
X135290Y521220D02*
X151790D01*
X143540Y512970D02*
Y529470D01*
X135290Y560820D02*
X151790D01*
X143540Y552570D02*
Y569070D01*
X356950Y1282700D02*
X366950D01*
X361950Y1277700D02*
Y1287700D01*
X356950Y1308100D02*
X366950D01*
X361950Y1303100D02*
Y1313100D01*
X356950Y1333500D02*
X366950D01*
X361950Y1328500D02*
Y1338500D01*
X206820Y403860D02*
X214820D01*
X210820Y399860D02*
Y407860D01*
X181420Y403860D02*
X189420D01*
X185420Y399860D02*
Y407860D01*
X206820Y223520D02*
X214820D01*
X210820Y219520D02*
Y227520D01*
X181420Y223520D02*
X189420D01*
X185420Y219520D02*
Y227520D01*
X156020Y403860D02*
X164020D01*
X160020Y399860D02*
Y407860D01*
X232220Y403860D02*
X240220D01*
X236220Y399860D02*
Y407860D01*
X232220Y223520D02*
X240220D01*
X236220Y219520D02*
Y227520D01*
X156020Y223520D02*
X164020D01*
X160020Y219520D02*
Y227520D01*
X257620Y403860D02*
X265620D01*
X261620Y399860D02*
Y407860D01*
X257620Y223520D02*
X265620D01*
X261620Y219520D02*
Y227520D01*
X130620Y403860D02*
X138620D01*
X134620Y399860D02*
Y407860D01*
X130620Y223520D02*
X138620D01*
X134620Y219520D02*
Y227520D01*
X283020Y403860D02*
X291020D01*
X287020Y399860D02*
Y407860D01*
X283020Y223520D02*
X291020D01*
X287020Y219520D02*
Y227520D01*
X105220Y403860D02*
X113220D01*
X109220Y399860D02*
Y407860D01*
X105220Y223520D02*
X113220D01*
X109220Y219520D02*
Y227520D01*
X624690Y555460D02*
X637690D01*
X631190Y548960D02*
Y561960D01*
X624690Y505460D02*
X637690D01*
X631190Y498960D02*
Y511960D01*
X624690Y455460D02*
X637690D01*
X631190Y448960D02*
Y461960D01*
X624690Y405460D02*
X637690D01*
X631190Y398960D02*
Y411960D01*
X624690Y355460D02*
X637690D01*
X631190Y348960D02*
Y361960D01*
X624690Y305460D02*
X637690D01*
X631190Y298960D02*
Y311960D01*
X624690Y255460D02*
X637690D01*
X631190Y248960D02*
Y261960D01*
X624690Y205460D02*
X637690D01*
X631190Y198960D02*
Y211960D01*
X624690Y155460D02*
X637690D01*
X631190Y148960D02*
Y161960D01*
X624690Y105460D02*
X637690D01*
X631190Y98960D02*
Y111960D01*
X294750Y1189990D02*
X303250D01*
X299000Y1185740D02*
Y1194240D01*
X204750Y1189990D02*
X213250D01*
X209000Y1185740D02*
Y1194240D01*
X340340Y556260D02*
X350540D01*
X345440Y551160D02*
Y561360D01*
X365740Y556260D02*
X375940D01*
X370840Y551160D02*
Y561360D01*
X391140Y556260D02*
X401340D01*
X396240Y551160D02*
Y561360D01*
X340340Y581660D02*
X350540D01*
X345440Y576560D02*
Y586760D01*
X365740Y581660D02*
X375940D01*
X370840Y576560D02*
Y586760D01*
X391140Y581660D02*
X401340D01*
X396240Y576560D02*
Y586760D01*
X433710Y336780D02*
X450210D01*
X441960Y328530D02*
Y345030D01*
X433710Y297180D02*
X450210D01*
X441960Y288930D02*
Y305430D01*
X125130Y1334250D02*
X141630D01*
X133380Y1326000D02*
Y1342500D01*
X125130Y1294650D02*
X141630D01*
X133380Y1286400D02*
Y1302900D01*
X124270Y880110D02*
X132270D01*
X128270Y876110D02*
Y884110D01*
X98870Y880110D02*
X106870D01*
X102870Y876110D02*
Y884110D01*
X216210Y831310D02*
X223210D01*
X219710Y827810D02*
Y834810D01*
X216210Y880110D02*
X223210D01*
X219710Y876610D02*
Y883610D01*
X124270Y831850D02*
X132270D01*
X128270Y827850D02*
Y835850D01*
X98870Y831850D02*
X106870D01*
X102870Y827850D02*
Y835850D01*
X623420Y1127570D02*
X636420D01*
X629920Y1121070D02*
Y1134070D01*
X623420Y1077570D02*
X636420D01*
X629920Y1071070D02*
Y1084070D01*
X623420Y1027570D02*
X636420D01*
X629920Y1021070D02*
Y1034070D01*
X623420Y977570D02*
X636420D01*
X629920Y971070D02*
Y984070D01*
X623420Y927570D02*
X636420D01*
X629920Y921070D02*
Y934070D01*
X623420Y877570D02*
X636420D01*
X629920Y871070D02*
Y884070D01*
X623420Y827570D02*
X636420D01*
X629920Y821070D02*
Y834070D01*
X623420Y777570D02*
X636420D01*
X629920Y771070D02*
Y784070D01*
X623420Y727570D02*
X636420D01*
X629920Y721070D02*
Y734070D01*
X623420Y677570D02*
X636420D01*
X629920Y671070D02*
Y684070D01*
X485180Y679450D02*
X490180D01*
X487680Y676950D02*
Y681950D01*
X474258Y727202D02*
X479258D01*
X476758Y724702D02*
Y729702D01*
M02*
