M48
;Layer_Color=9474304
;FILE_FORMAT=4:3
METRIC,LZ
;TYPE=PLATED
T01F00S00C0.500
T02F00S00C0.700
T03F00S00C0.800
T04F00S00C0.850
T05F00S00C0.900
T06F00S00C0.990
T07F00S00C1.000
T08F00S00C1.020
T09F00S00C1.300
T10F00S00C1.650
%
T01
X0048768Y0067945
X0047676Y007272
T02
X0021971Y0083131
Y0088011
X0060111Y012827
X0065111
X0064984Y013335
X0059984
T03
X0010922Y0022352
X0013462
X0016002
X0018542
X0021082
X0023622
X0026162
X0028702
Y0040386
X0026162
X0023622
X0021082
X0018542
X0016002
X0013462
X0010922
X0010287Y0083185
X0012827
Y0088011
X0010287
T04
X00209Y0118999
X00299
T05
X0033655Y0074041
Y0076581
Y0079121
Y0081661
Y0084201
Y0086741
Y0089281
Y0091821
Y0094361
Y0096901
Y0099441
Y0101981
Y0104521
Y0107061
X0041275
Y0104521
Y0101981
Y0099441
Y0096901
Y0094361
Y0091821
Y0089281
Y0086741
Y0084201
Y0081661
Y0079121
Y0076581
Y0074041
T06
X0015149Y0103176
X0019649
Y0109676
X0015149
T07
X0036195Y012827
Y013081
Y013335
T08
X0034544Y0055626
X0037084
X0039624
Y0058166
X0037084
X0034544
T09
X0063119Y0010546
Y0015546
Y0020546
Y0025546
Y0030546
Y0035546
Y0040546
Y0045546
Y0050546
Y0055546
X0062992Y0067757
Y0072757
Y0077757
Y0082757
Y0087757
Y0092757
Y0097757
Y0102757
Y0107757
Y0112757
T10
X0044196Y0029718
Y0033678
X0014354Y0052122
Y0056082
X0014608Y0066981
Y0070941
X0013338Y0129465
Y0133425
M30
