G04*
G04 #@! TF.GenerationSoftware,Altium Limited,Altium Designer,24.0.1 (36)*
G04*
G04 Layer_Color=8388736*
%FSLAX44Y44*%
%MOMM*%
G71*
G04*
G04 #@! TF.SameCoordinates,AD72D708-2F1B-4BA6-821B-E73127EA62D2*
G04*
G04*
G04 #@! TF.FilePolarity,Negative*
G04*
G01*
G75*
%ADD16R,1.2000X1.2000*%
%ADD17C,1.2000*%
%ADD18C,1.7032*%
%ADD19R,1.7032X1.7032*%
%ADD20R,1.7032X1.7032*%
%ADD21C,2.3532*%
%ADD22R,2.3532X2.3532*%
%ADD23C,1.8032*%
%ADD24R,1.8032X1.8032*%
%ADD25C,1.5112*%
%ADD26R,1.5112X1.5112*%
%ADD27R,2.1532X2.1532*%
%ADD28C,2.1532*%
%ADD29R,1.5532X1.5532*%
%ADD30C,1.5532*%
%ADD31C,1.7532*%
%ADD32R,1.7532X1.7532*%
%ADD33R,1.5032X1.5032*%
%ADD34C,1.5032*%
%ADD35R,1.4032X1.4032*%
%ADD36C,1.4032*%
%ADD37C,1.2032*%
D16*
X599840Y1333500D02*
D03*
X601110Y1282700D02*
D03*
D17*
X649840Y1333500D02*
D03*
X651110Y1282700D02*
D03*
D18*
X151490Y1096760D02*
D03*
X196490D02*
D03*
Y1031760D02*
D03*
X412750Y740410D02*
D03*
Y765810D02*
D03*
Y791210D02*
D03*
Y816610D02*
D03*
Y842010D02*
D03*
Y867410D02*
D03*
Y892810D02*
D03*
Y918210D02*
D03*
Y943610D02*
D03*
Y969010D02*
D03*
Y994410D02*
D03*
Y1019810D02*
D03*
Y1045210D02*
D03*
Y1070610D02*
D03*
X336550Y740410D02*
D03*
Y765810D02*
D03*
Y791210D02*
D03*
Y816610D02*
D03*
Y842010D02*
D03*
Y867410D02*
D03*
Y892810D02*
D03*
Y918210D02*
D03*
Y943610D02*
D03*
Y969010D02*
D03*
Y994410D02*
D03*
Y1019810D02*
D03*
Y1045210D02*
D03*
D19*
X151490Y1031760D02*
D03*
D20*
X336550Y1070610D02*
D03*
D21*
X146080Y669810D02*
D03*
X143540Y521220D02*
D03*
X441960Y297180D02*
D03*
X133380Y1294650D02*
D03*
D22*
X146080Y709410D02*
D03*
X143540Y560820D02*
D03*
X441960Y336780D02*
D03*
X133380Y1334250D02*
D03*
D23*
X361950Y1282700D02*
D03*
Y1308100D02*
D03*
D24*
Y1333500D02*
D03*
D25*
X210820Y403860D02*
D03*
X185420D02*
D03*
X210820Y223520D02*
D03*
X185420D02*
D03*
X160020Y403860D02*
D03*
X236220D02*
D03*
Y223520D02*
D03*
X160020D02*
D03*
X261620Y403860D02*
D03*
Y223520D02*
D03*
X134620Y403860D02*
D03*
Y223520D02*
D03*
X287020D02*
D03*
X109220Y403860D02*
D03*
Y223520D02*
D03*
D26*
X287020Y403860D02*
D03*
D27*
X631190Y555460D02*
D03*
X629920Y1127570D02*
D03*
D28*
X631190Y505460D02*
D03*
Y455460D02*
D03*
Y405460D02*
D03*
Y355460D02*
D03*
Y305460D02*
D03*
Y255460D02*
D03*
Y205460D02*
D03*
Y155460D02*
D03*
Y105460D02*
D03*
X629920Y1077570D02*
D03*
Y1027570D02*
D03*
Y977570D02*
D03*
Y927570D02*
D03*
Y877570D02*
D03*
Y827570D02*
D03*
Y777570D02*
D03*
Y727570D02*
D03*
Y677570D02*
D03*
D29*
X299000Y1189990D02*
D03*
D30*
X209000D02*
D03*
D31*
X345440Y556260D02*
D03*
X370840D02*
D03*
X396240D02*
D03*
X345440Y581660D02*
D03*
X370840D02*
D03*
D32*
X396240D02*
D03*
D33*
X128270Y880110D02*
D03*
Y831850D02*
D03*
D34*
X102870Y880110D02*
D03*
Y831850D02*
D03*
D35*
X219710Y831310D02*
D03*
D36*
Y880110D02*
D03*
D37*
X487680Y679450D02*
D03*
X476758Y727202D02*
D03*
M02*
